<svg id="Layer_1" data-name="Layer 1" xmlns="http://www.w3.org/2000/svg" viewBox="0 0 309.47 34.4"><path d="M47.5,9.73V42.79H41.85V18L32,42.79H27.07L17.15,18V33.32h-5.6V9.73h6.78l11.29,26.4,11.1-26.4ZM17.15,40a2.8,2.8,0,1,1-2.8-2.8A2.79,2.79,0,0,1,17.15,40Z" transform="translate(-11.55 -8.77)"/><path d="M87.78,26a17.64,17.64,0,0,1-2.23,8.88A16.07,16.07,0,0,1,79.41,41a18.31,18.31,0,0,1-17.48,0,16.22,16.22,0,0,1-6.17-6.13A17.56,17.56,0,0,1,53.5,26a17.49,17.49,0,0,1,2.26-8.87A16.05,16.05,0,0,1,61.93,11a18.54,18.54,0,0,1,17.48,0,15.91,15.91,0,0,1,6.14,6.12A17.58,17.58,0,0,1,87.78,26ZM82,26a13.69,13.69,0,0,0-1.45-6.42,10.31,10.31,0,0,0-4-4.24,11.65,11.65,0,0,0-5.87-1.47,11.84,11.84,0,0,0-5.94,1.47,10.17,10.17,0,0,0-4,4.24A13.57,13.57,0,0,0,59.25,26a13.54,13.54,0,0,0,1.45,6.42,10.11,10.11,0,0,0,4,4.24,11.84,11.84,0,0,0,5.94,1.47,11.65,11.65,0,0,0,5.87-1.47,10.25,10.25,0,0,0,4-4.24A13.66,13.66,0,0,0,82,26Zm-8.6-.06a2.8,2.8,0,1,1-2.8-2.8A2.8,2.8,0,0,1,73.44,25.89Z" transform="translate(-11.55 -8.77)"/><path d="M114.58,42.79H108.3L97.21,25.52h4.66q6.76,0,6.77-5.8A5.65,5.65,0,0,0,107,15.41q-1.65-1.54-5.13-1.54H90.08V9.2h12.23q5.94,0,9,2.81a9.6,9.6,0,0,1,3.07,7.42,9.22,9.22,0,0,1-2.29,6.47,11,11,0,0,1-6.6,3.24ZM95.68,40a2.8,2.8,0,1,1-2.8-2.8A2.8,2.8,0,0,1,95.68,40Z" transform="translate(-11.55 -8.77)"/><path d="M143.18,33.9A9,9,0,0,1,142,38.49a8.84,8.84,0,0,1-3.73,3.4,13.31,13.31,0,0,1-6.14,1.29A15.71,15.71,0,0,1,125.75,42a10.93,10.93,0,0,1-4.47-3.4,9.48,9.48,0,0,1-1.92-5h6a5.93,5.93,0,0,0,1.94,3.76,6.46,6.46,0,0,0,4.54,1.57,5.52,5.52,0,0,0,4-1.34,4.51,4.51,0,0,0,1.4-3.42,4.37,4.37,0,0,0-1-3,7.38,7.38,0,0,0-2.56-1.83c-1-.44-2.4-1-4.17-1.52a37.18,37.18,0,0,1-5.28-2,9.53,9.53,0,0,1-3.46-2.9,8.15,8.15,0,0,1-1.43-5,8.32,8.32,0,0,1,1.38-4.76,8.85,8.85,0,0,1,3.93-3.16,14.63,14.63,0,0,1,5.89-1.12l.76,0v4.34c-.24,0-.5,0-.76,0a5.77,5.77,0,0,0-3.78,1.17,4.08,4.08,0,0,0-1.43,3.35,4.1,4.1,0,0,0,1,2.83,6.62,6.62,0,0,0,2.48,1.76c1,.43,2.36.93,4.1,1.5a37.4,37.4,0,0,1,5.37,2,9.74,9.74,0,0,1,3.54,3A8.38,8.38,0,0,1,143.18,33.9ZM135.66,15a2.8,2.8,0,1,1,2.8,2.8A2.8,2.8,0,0,1,135.66,15Z" transform="translate(-11.55 -8.77)"/><path d="M169.05,13.58H154.81V38.37h14.24v4.42H149.22V9.2h19.83Zm-6.51,9.62a2.8,2.8,0,1,1-2.8,2.8A2.8,2.8,0,0,1,162.54,23.2Z" transform="translate(-11.55 -8.77)"/><path d="M222.05,31.57a15.22,15.22,0,0,1-5.69,8.49,17.4,17.4,0,0,1-10.61,3.12A17.09,17.09,0,0,1,197.06,41a14.86,14.86,0,0,1-5.85-6,18.71,18.71,0,0,1-2.06-8.88,18.66,18.66,0,0,1,2.06-8.87,15,15,0,0,1,5.85-6.07A17,17,0,0,1,205.75,9a18.67,18.67,0,0,1,8.16,1.68l-3.64,4.16a12.68,12.68,0,0,0-4.62-.79,10.45,10.45,0,0,0-5.52,1.47,10.32,10.32,0,0,0-3.84,4.21,13.94,13.94,0,0,0-1.39,6.4,13.85,13.85,0,0,0,1.39,6.36,10.32,10.32,0,0,0,3.84,4.21,10.45,10.45,0,0,0,5.52,1.47,11.57,11.57,0,0,0,6.56-1.78,10.39,10.39,0,0,0,3.9-4.78Zm-7-13.74a2.8,2.8,0,1,1,2.8,2.8A2.8,2.8,0,0,1,215.06,17.83Z" transform="translate(-11.55 -8.77)"/><path d="M260.34,26a17.65,17.65,0,0,1-2.24,8.88A16,16,0,0,1,252,41a18.33,18.33,0,0,1-17.49,0,16.26,16.26,0,0,1-6.16-6.13A17.46,17.46,0,0,1,226.06,26a17.39,17.39,0,0,1,2.26-8.87A16.09,16.09,0,0,1,234.48,11,18.55,18.55,0,0,1,252,11a15.88,15.88,0,0,1,6.13,6.12A17.58,17.58,0,0,1,260.34,26Zm-5.75,0a13.57,13.57,0,0,0-1.45-6.42,10.23,10.23,0,0,0-4-4.24,11.65,11.65,0,0,0-5.87-1.47,11.84,11.84,0,0,0-5.94,1.47,10.17,10.17,0,0,0-4.05,4.24A13.57,13.57,0,0,0,231.81,26a13.54,13.54,0,0,0,1.45,6.42,10.11,10.11,0,0,0,4.05,4.24,11.84,11.84,0,0,0,5.94,1.47,11.65,11.65,0,0,0,5.87-1.47,10.17,10.17,0,0,0,4-4.24A13.54,13.54,0,0,0,254.59,26ZM246,25.89a2.8,2.8,0,1,1-2.8-2.8A2.8,2.8,0,0,1,246,25.89Z" transform="translate(-11.55 -8.77)"/><path d="M295.08,26A17.82,17.82,0,0,1,293,34.83a14.59,14.59,0,0,1-6.24,5.87,21.25,21.25,0,0,1-9.8,2.09H265.32v-4.9h11.15q6.24,0,9.58-3.14t3.34-8.8q0-5.65-3.34-8.8T276.47,14H265.32V9.2h11.59a21.51,21.51,0,0,1,9.8,2.07A14.57,14.57,0,0,1,293,17.1,17.68,17.68,0,0,1,295.08,26Zm-27,2.85a2.8,2.8,0,1,1,2.8-2.8A2.81,2.81,0,0,1,268.12,28.8Z" transform="translate(-11.55 -8.77)"/><path d="M321,13.58H306.78V38.37H321v4.42H301.18V9.2H321Zm-6.51,9.62a2.8,2.8,0,1,1-2.8,2.8A2.8,2.8,0,0,1,314.51,23.2Z" transform="translate(-11.55 -8.77)"/></svg>